<svg width="580" height="221" viewBox="0 0 580 221" fill="none" xmlns="http://www.w3.org/2000/svg">
<g clip-path="url(#clip0_4001_20)">
<path d="M1.52588e-05 47.2652C1.52588e-05 21.1613 21.1614 0 47.2652 0L173.306 1.81017e-10C199.41 2.08283e-10 220.571 21.1613 220.571 47.2652L220.571 173.306C220.571 199.41 199.41 220.571 173.306 220.571L47.2652 220.571C21.1614 220.571 1.5259e-05 199.41 1.5259e-05 173.306L1.52588e-05 47.2652Z" fill="#0E1117"/>
<mask id="mask0_4001_20" style="mask-type:alpha" maskUnits="userSpaceOnUse" x="0" y="0" width="221" height="221">
<path d="M1.52588e-05 47.2652C1.52588e-05 21.1613 21.1614 -1.52588e-05 47.2652 -1.52587e-05L173.306 -1.52586e-05C199.41 -1.52586e-05 220.571 21.1613 220.571 47.2652L220.571 173.306C220.571 199.409 199.41 220.571 173.306 220.571L47.2652 220.571C21.1614 220.571 1.5259e-05 199.409 1.5259e-05 173.306L1.52588e-05 47.2652Z" fill="#4747A6"/>
</mask>
<g mask="url(#mask0_4001_20)">
<path d="M114.697 114.224C51.3516 114.224 3.4062e-05 62.8727 2.02174e-05 -0.472626L1.52589e-05 -23.1599C1.41428e-06 -86.5052 51.3516 -137.857 114.697 -137.857L168.894 -137.857C232.24 -137.857 283.591 -86.5053 283.591 -23.1599L283.591 -0.472687C283.591 62.8726 232.24 114.224 168.894 114.224L114.697 114.224Z" fill="#155DFC"/>
<path d="M88.3104 181.183C85.198 181.183 82.4546 179.127 81.5624 176.126L43.6266 48.5098C42.2747 43.962 45.6584 39.3877 50.3745 39.3877L83.7892 39.3877C87.0614 39.3877 89.9027 41.6561 90.6477 44.8633L102.578 96.2214C104.251 103.427 114.396 103.557 116.252 96.3963L129.649 44.6883C130.458 41.5662 133.259 39.3877 136.464 39.3877L172.51 39.3877C175.723 39.3877 178.529 41.5761 179.331 44.7076L192.477 96.0354C194.317 103.222 204.502 103.092 206.16 95.8601L217.85 44.8829C218.587 41.6662 221.433 39.3876 224.713 39.3876L256.849 39.3876C261.565 39.3876 264.949 43.9619 263.597 48.5098L225.661 176.126C224.769 179.127 222.026 181.183 218.913 181.183L181.333 181.183C178.155 181.183 175.37 179.041 174.536 175.954L160.36 123.484C158.47 116.491 148.606 116.52 146.756 123.523L132.918 175.915C132.098 179.021 129.304 181.183 126.111 181.183L88.3104 181.183Z" fill="white"/>
</g>
</g>
<path d="M271.57 159.785V60.7882H303.607C304.386 60.7882 305.99 60.8111 308.419 60.8569C310.848 60.9028 313.186 61.0632 315.431 61.3382C323.406 62.3006 330.166 65.0735 335.712 69.6567C341.258 74.2399 345.474 80.0606 348.362 87.1187C351.249 94.1768 352.693 101.9 352.693 110.287C352.693 118.674 351.249 126.397 348.362 133.455C345.474 140.513 341.258 146.334 335.712 150.917C330.166 155.5 323.406 158.273 315.431 159.235C313.186 159.51 310.848 159.671 308.419 159.717C305.99 159.763 304.386 159.785 303.607 159.785H271.57ZM290.545 142.186H303.607C304.844 142.186 306.517 142.163 308.625 142.117C310.734 142.026 312.636 141.819 314.331 141.498C318.64 140.628 322.146 138.611 324.85 135.449C327.6 132.286 329.616 128.482 330.9 124.036C332.229 119.591 332.893 115.008 332.893 110.287C332.893 105.337 332.206 100.639 330.831 96.1934C329.502 91.7477 327.462 87.9895 324.712 84.9188C321.963 81.848 318.502 79.9001 314.331 79.0752C312.636 78.7085 310.734 78.5023 308.625 78.4564C306.517 78.4106 304.844 78.3877 303.607 78.3877H290.545V142.186ZM405.074 161.848C397.465 161.848 390.751 160.221 384.93 156.967C379.156 153.667 374.618 149.152 371.318 143.423C368.064 137.649 366.437 131.049 366.437 123.624C366.437 115.512 368.041 108.454 371.25 102.45C374.458 96.4455 378.881 91.7936 384.518 88.4937C390.155 85.1479 396.64 83.475 403.974 83.475C411.765 83.475 418.388 85.3083 423.842 88.9749C429.296 92.6415 433.329 97.7976 435.941 104.443C438.554 111.089 439.471 118.903 438.691 127.886H420.198V121.012C420.198 113.449 418.984 108.018 416.555 104.718C414.171 101.372 410.253 99.6996 404.799 99.6996C398.428 99.6996 393.73 101.647 390.705 105.543C387.726 109.393 386.237 115.099 386.237 122.661C386.237 129.582 387.726 134.944 390.705 138.749C393.73 142.507 398.153 144.386 403.974 144.386C407.64 144.386 410.78 143.584 413.392 141.98C416.005 140.376 417.998 138.061 419.373 135.036L438.073 140.398C435.277 147.182 430.854 152.452 424.804 156.211C418.8 159.969 412.223 161.848 405.074 161.848ZM380.462 127.886V113.999H429.685V127.886H380.462ZM474.871 161.848C469.555 161.848 465.04 160.84 461.328 158.823C457.661 156.761 454.865 154.034 452.941 150.642C451.061 147.205 450.122 143.423 450.122 139.298C450.122 135.861 450.649 132.722 451.703 129.88C452.757 127.038 454.453 124.541 456.79 122.386C459.174 120.187 462.359 118.353 466.346 116.887C469.096 115.878 472.373 114.985 476.177 114.205C479.981 113.426 484.29 112.693 489.102 112.006C493.914 111.272 499.208 110.47 504.983 109.599L498.246 113.312C498.246 108.912 497.191 105.681 495.083 103.618C492.975 101.556 489.446 100.525 484.496 100.525C481.746 100.525 478.881 101.189 475.902 102.518C472.923 103.847 470.838 106.208 469.646 109.599L452.734 104.237C454.613 98.0955 458.142 93.0998 463.321 89.2499C468.501 85.4 475.559 83.475 484.496 83.475C491.05 83.475 496.871 84.4834 501.958 86.5C507.045 88.5166 510.895 91.9998 513.508 96.9497C514.974 99.6996 515.845 102.45 516.12 105.199C516.395 107.949 516.533 111.02 516.533 114.412V159.785H500.17V144.523L502.508 147.686C498.887 152.681 494.969 156.302 490.752 158.548C486.581 160.748 481.288 161.848 474.871 161.848ZM478.859 147.136C482.296 147.136 485.183 146.54 487.521 145.348C489.904 144.111 491.783 142.713 493.158 141.155C494.579 139.596 495.541 138.29 496.046 137.236C497.008 135.219 497.558 132.882 497.696 130.224C497.879 127.52 497.971 125.274 497.971 123.486L503.47 124.861C497.925 125.778 493.433 126.557 489.996 127.199C486.558 127.795 483.786 128.345 481.677 128.849C479.569 129.353 477.713 129.903 476.109 130.499C474.275 131.232 472.786 132.034 471.64 132.905C470.54 133.73 469.715 134.647 469.165 135.655C468.661 136.663 468.409 137.786 468.409 139.024C468.409 140.719 468.821 142.186 469.646 143.423C470.517 144.615 471.732 145.532 473.29 146.173C474.848 146.815 476.704 147.136 478.859 147.136ZM541.97 159.785V85.8125C541.97 83.9334 542.016 81.8022 542.108 79.4189C542.2 77.0356 542.566 74.6295 543.208 72.2004C543.895 69.7713 545.133 67.5713 546.92 65.6005C549.212 63.0339 551.687 61.2923 554.345 60.3757C557.049 59.4132 559.662 58.9091 562.182 58.8632C564.703 58.7716 566.857 58.7257 568.645 58.7257H577.857V73.8503H569.332C566.399 73.8503 564.222 74.6065 562.801 76.119C561.38 77.5856 560.67 79.3502 560.67 81.4126V159.785H541.97ZM530.283 99.9746V85.5375H577.857V99.9746H530.283Z" fill="white"/>
<defs>
<clipPath id="clip0_4001_20">
<rect width="220.571" height="220.571" fill="white" transform="translate(1.52588e-05 220.571) rotate(-90)"/>
</clipPath>
</defs>
</svg>
